<?xml version="1.0" encoding="UTF-8"?>
<svg id="Layer_1" xmlns="http://www.w3.org/2000/svg" version="1.1" viewBox="0 0 624 442.39">
  <!-- Generator: Adobe Illustrator 30.6.0, SVG Export Plug-In . SVG Version: 2.1.4 Build 109)  -->
  <defs>
    <style>
      .st0 {
        opacity: .65;
      }

      .st1, .st2, .st3, .st4, .st5 {
        stroke: #231f20;
        stroke-miterlimit: 10;
      }

      .st1, .st2, .st4 {
        fill: none;
      }

      .st1, .st3 {
        stroke-width: 13px;
      }

      .st2 {
        stroke-width: 2px;
      }

      .st3, .st5 {
        fill: #231f20;
      }

      .st4 {
        stroke-width: 3px;
      }
    </style>
  </defs>
  <g class="st0">
    <g>
      <g>
        <g>
          <line class="st2" x1="16.45" y1="28.65" x2="286.45" y2="249.78"/>
          <line class="st2" x1="114.64" y1="64.98" x2="141.15" y2="334.57"/>
        </g>
        <line class="st2" x1="312" y1="14.8" x2="286.45" y2="249.78"/>
      </g>
      <g>
        <g>
          <line class="st2" x1="607.55" y1="30.25" x2="337.55" y2="250.23"/>
          <line class="st2" x1="509.36" y1="66.4" x2="482.85" y2="334.57"/>
        </g>
        <line class="st2" x1="337.55" y1="250.23" x2="312" y2="16.48"/>
      </g>
    </g>
    <line class="st2" x1="286.45" y1="251.46" x2="337.55" y2="251.46"/>
  </g>
  <g>
    <g>
      <line class="st1" x1="141.15" y1="336.24" x2="312" y2="16.48"/>
      <line class="st1" x1="482.85" y1="336.24" x2="312" y2="16.48"/>
    </g>
    <g>
      <polygon class="st1" points="16.45 30.33 114.64 64.6 286.45 251.46 141.15 336.24 16.45 30.33"/>
      <polygon class="st1" points="607.55 30.33 509.36 64.6 337.55 251.46 482.85 336.24 607.55 30.33"/>
    </g>
  </g>
  <g>
    <circle class="st3" cx="286.5" cy="251.5" r="10"/>
    <circle class="st3" cx="16.5" cy="30.5" r="10"/>
    <circle class="st3" cx="141.5" cy="336.5" r="10"/>
    <circle class="st3" cx="114.5" cy="64.5" r="10"/>
    <circle class="st3" cx="337.5" cy="251.5" r="10"/>
    <circle class="st3" cx="607.5" cy="30.5" r="10"/>
    <circle class="st3" cx="482.5" cy="336.5" r="10"/>
    <circle class="st3" cx="509.5" cy="64.5" r="10"/>
    <circle class="st3" cx="312.5" cy="16.5" r="10"/>
  </g>
  <path class="st4" d="M312,64.6"/>
  <path class="st4" d="M312,66.66"/>
  <g>
    <polygon class="st5" points="87.29 380.04 108.02 380.04 121.76 412.55 137.47 384.18 134.86 380.04 153.18 380.04 170.42 412.55 185.47 380.04 204.67 380.04 176.75 440.69 166.06 440.69 146.86 403.82 127 440.69 116.75 440.69 87.29 380.04"/>
    <g>
      <polygon class="st5" points="215.8 441.28 215.8 380.63 281.22 380.04 288.78 394.44 233.84 394.44 233.84 426.88 288.78 426.88 281.84 441.86 215.8 441.28"/>
      <polyline class="st5" points="230.06 404.48 281.84 404.48 281.84 417.86 230.06 417.86"/>
    </g>
    <path class="st5" d="M377.26,380.04"/>
    <g>
      <polygon class="st5" points="291.15 441.86 324.75 385.43 321.4 380.04 342.06 380.04 377.26 441.28 358.2 441.86 334.2 400.85 311.36 441.28 291.15 441.86"/>
      <polygon class="st5" points="344.16 417.86 324.59 417.86 316.52 432.15 352.52 432.15 344.16 417.86"/>
    </g>
    <polygon class="st5" points="368.08 380.04 401.68 436.47 398.34 441.86 418.99 441.86 454.19 380.62 435.14 380.04 411.14 421.06 388.3 380.62 368.08 380.04"/>
    <g>
      <polygon class="st5" points="463.73 441.28 463.73 380.63 529.14 380.04 536.71 394.44 481.76 394.44 481.76 426.88 536.71 426.88 529.76 441.86 463.73 441.28"/>
      <polyline class="st5" points="477.98 404.48 529.76 404.48 529.76 417.86 477.98 417.86"/>
    </g>
  </g>
</svg>