<?xml version="1.0" encoding="UTF-8"?>
<svg id="Layer_1" xmlns="http://www.w3.org/2000/svg" version="1.1" xmlns:xlink="http://www.w3.org/1999/xlink" viewBox="0 0 624 353">
  <!-- Generator: Adobe Illustrator 30.6.0, SVG Export Plug-In . SVG Version: 2.1.4 Build 109)  -->
  <defs>
    <style>
      .st0 {
        stroke: url(#linear-gradient1);
      }

      .st0, .st1, .st2, .st3, .st4, .st5, .st6, .st7 {
        stroke-miterlimit: 10;
      }

      .st0, .st1, .st2, .st3, .st6, .st7 {
        stroke-width: 13px;
      }

      .st0, .st2, .st3, .st4, .st5, .st6 {
        fill: none;
      }

      .st1 {
        fill: #6b3edf;
        stroke: #6b3edf;
      }

      .st8 {
        opacity: .65;
      }

      .st2 {
        stroke: url(#linear-gradient3);
      }

      .st3 {
        stroke: url(#linear-gradient);
      }

      .st4 {
        stroke: #ef3e24;
        stroke-width: 3px;
      }

      .st5 {
        stroke-width: 2px;
      }

      .st5, .st7 {
        stroke: #1e8fd3;
      }

      .st6 {
        stroke: url(#linear-gradient2);
      }

      .st7 {
        fill: #1e8fd3;
      }
    </style>
    <linearGradient id="linear-gradient" x1="226.57" y1="339.3" x2="226.57" y2="13.42" gradientUnits="userSpaceOnUse">
      <stop offset="0" stop-color="#6b3edf"/>
      <stop offset=".23" stop-color="#5e4add"/>
      <stop offset=".64" stop-color="#3e6cd8"/>
      <stop offset="1" stop-color="#1e8fd3"/>
    </linearGradient>
    <linearGradient id="linear-gradient1" x1="397.42" x2="397.42" xlink:href="#linear-gradient"/>
    <linearGradient id="linear-gradient2" x1="150.85" y1="345.63" x2="150.85" y2="19.45" xlink:href="#linear-gradient"/>
    <linearGradient id="linear-gradient3" x1="473.15" y1="345.63" x2="473.15" y2="19.45" xlink:href="#linear-gradient"/>
  </defs>
  <g class="st8">
    <g>
      <g>
        <g>
          <line class="st5" x1="16.45" y1="28.65" x2="286.45" y2="249.78"/>
          <line class="st5" x1="114.64" y1="64.98" x2="141.15" y2="334.57"/>
        </g>
        <line class="st5" x1="312" y1="14.8" x2="286.45" y2="249.78"/>
      </g>
      <g>
        <g>
          <line class="st5" x1="607.55" y1="30.25" x2="337.55" y2="250.23"/>
          <line class="st5" x1="509.36" y1="66.4" x2="482.85" y2="334.57"/>
        </g>
        <line class="st5" x1="337.55" y1="250.23" x2="312" y2="16.48"/>
      </g>
    </g>
    <line class="st5" x1="286.45" y1="251.46" x2="337.55" y2="251.46"/>
  </g>
  <g>
    <g>
      <line class="st3" x1="141.15" y1="336.24" x2="312" y2="16.48"/>
      <line class="st0" x1="482.85" y1="336.24" x2="312" y2="16.48"/>
    </g>
    <g>
      <polygon class="st6" points="16.45 30.33 114.64 64.6 286.45 251.46 141.15 336.24 16.45 30.33"/>
      <polygon class="st2" points="607.55 30.33 509.36 64.6 337.55 251.46 482.85 336.24 607.55 30.33"/>
    </g>
  </g>
  <g>
    <circle class="st1" cx="286.5" cy="251.5" r="10"/>
    <circle class="st7" cx="16.5" cy="30.5" r="10"/>
    <circle class="st1" cx="141.5" cy="336.5" r="10"/>
    <circle class="st7" cx="114.5" cy="64.5" r="10"/>
    <circle class="st1" cx="337.5" cy="251.5" r="10"/>
    <circle class="st7" cx="607.5" cy="30.5" r="10"/>
    <circle class="st1" cx="482.5" cy="336.5" r="10"/>
    <circle class="st7" cx="509.5" cy="64.5" r="10"/>
    <circle class="st7" cx="312.5" cy="16.5" r="10"/>
  </g>
  <path class="st4" d="M312,64.6"/>
  <path class="st4" d="M312,66.66"/>
</svg>